<svg version="1.1" xmlns="http://www.w3.org/2000/svg" viewBox="0 0 2048 2048"><path transform="translate(0,0)" fill="rgb(16,29,46)" d="M 540.929 703.141 C 570.345 702.485 601.806 703.068 631.367 703.065 L 810.376 703.092 L 915.663 703.013 C 934.848 703.001 954.553 703.375 973.683 703.012 C 1038.59 701.783 1086.82 737.387 1139.57 770.299 L 1254.67 841.992 C 1283.12 859.679 1319 882.4 1349.08 896.568 C 1375.49 909.009 1424.64 907.295 1455.79 915.762 C 1501.07 928.073 1544.45 943.907 1589.24 956.959 C 1607.94 993.616 1636.91 1041 1657.9 1077.7 L 1657.99 1239.8 L 1529.46 1239.66 C 1531.73 1203.29 1529.93 1177.08 1511.58 1144.1 C 1492.1 1108.8 1459.34 1082.73 1420.56 1071.67 C 1380.36 1060.37 1342.08 1066.98 1306.07 1087.02 C 1251.33 1122.43 1226.74 1175.03 1235.15 1239.7 L 826.604 1239.73 C 832.19 1184.57 817.728 1138.02 774.507 1101.48 C 744.827 1076.27 706.317 1063.95 667.519 1067.26 C 598.146 1073.23 539.547 1130.84 532.281 1200.01 C 530.8 1214.11 531.021 1225.72 532.319 1239.79 L 442.118 1239.71 C 425.069 1222.13 407.875 1204.7 390.539 1187.4 C 390.758 1165.6 390.777 1143.79 390.595 1121.98 C 390.565 1108.37 390.024 1091.78 391.991 1078.62 C 393.624 1067.29 397.102 1056.29 402.287 1046.08 C 409.447 1032.02 420.736 1019.09 430.685 1006.8 C 431.032 993.557 434.744 937.021 440.295 927.543 C 447.715 914.872 483.107 875.956 494.209 863.371 C 525.533 827.864 556.619 791.508 588.194 756.467 C 572.865 738.319 557.106 720.538 540.929 703.141 z"/><path transform="translate(0,0)" fill="rgb(92,203,245)" d="M 611.978 735.732 C 734.58 737.593 859.345 732.516 981.687 735.889 C 1036.62 740.501 1069 765.3 1113.95 793.695 L 1226.16 863.356 C 1261.16 885.235 1305.76 913.858 1343.27 929.624 C 1361.46 937.27 1407.34 939.905 1429.96 943.431 C 1454.25 947.319 1471.84 954.778 1494.78 960.813 C 1470.35 1001.42 1512.3 1027.77 1547.24 1031.34 C 1563.89 1033.04 1580.94 1036.66 1597.8 1037.3 C 1606.23 1052.83 1615.94 1071.26 1625.08 1086.25 L 1624.95 1206.82 L 1562.88 1206.95 C 1557.92 1152.58 1538.93 1110.55 1496.24 1074.91 C 1459.68 1044.6 1412.62 1029.98 1365.33 1034.25 C 1317.07 1038.44 1272.54 1061.94 1241.85 1099.42 C 1215.81 1131.09 1203.11 1166.31 1200.18 1206.87 L 860.314 1206.75 C 859.553 1197.14 858.585 1187.66 856.588 1178.21 C 853.14 1159.76 844.301 1138.09 834.678 1122.08 C 809.886 1080.69 769.737 1050.78 722.984 1038.87 C 676.972 1027.74 628.425 1035.22 587.898 1059.69 C 543.459 1086.67 514.708 1127.73 502.613 1177.96 C 500.657 1188.17 499.375 1196.57 498.656 1206.9 L 456.644 1206.83 C 447.179 1197.16 437.317 1187.53 427.711 1177.97 C 422.049 1172.54 423.445 1169.51 423.118 1162.08 C 422.427 1146.41 424.044 1128.94 423.369 1113.49 C 421.654 1074.25 431.698 1055.65 458.503 1027.9 C 467.859 1028.62 474.214 1028.6 483.294 1025.74 C 521.313 1013.78 521.158 960.199 492.543 938.908 C 488.111 935.61 483.481 933.642 478.437 931.376 L 630.643 757.432 C 624.514 750.119 618.292 742.885 611.978 735.732 z"/><path transform="translate(0,0)" fill="rgb(16,29,46)" d="M 799.573 773.258 C 816.713 773.876 834.648 773.836 851.809 773.633 C 903.686 773.02 956.128 774.682 1007.95 773.187 L 1258.55 924.962 L 1069.6 925.601 L 1008.97 925.784 C 1000.64 925.82 986.114 925.467 978.268 926.02 L 961.917 925.319 C 842.696 923.228 724.561 918.723 604.97 917.786 C 645.846 869.622 688.786 820.752 730.412 773.173 C 752.498 773.917 777.39 773.442 799.573 773.258 z"/><path transform="translate(0,0)" fill="rgb(255,244,220)" d="M 611.978 735.732 C 734.58 737.593 859.345 732.516 981.687 735.889 C 975.437 759.221 953.343 766.999 931.588 771.783 C 921.325 774.04 905.7 773.129 894.953 773.112 L 833.635 772.964 C 824.321 772.942 808.457 772.475 799.573 773.258 C 777.39 773.442 752.498 773.917 730.412 773.173 C 688.786 820.752 645.846 869.622 604.97 917.786 C 724.561 918.723 842.696 923.228 961.917 925.319 L 978.268 926.02 C 971.372 927.293 965.925 928.115 958.958 928.897 C 922.266 932.011 883.361 938.706 846.784 942.861 C 720.181 957.243 588.123 991.248 504.019 1094.3 C 486.025 1116.03 458.793 1152.39 445.969 1178.24 C 440.151 1178.31 433.592 1178.06 427.711 1177.97 C 422.049 1172.54 423.445 1169.51 423.118 1162.08 C 422.427 1146.41 424.044 1128.94 423.369 1113.49 C 421.654 1074.25 431.698 1055.65 458.503 1027.9 C 467.859 1028.62 474.214 1028.6 483.294 1025.74 C 521.313 1013.78 521.158 960.199 492.543 938.908 C 488.111 935.61 483.481 933.642 478.437 931.376 L 630.643 757.432 C 624.514 750.119 618.292 742.885 611.978 735.732 z"/><path transform="translate(0,0)" fill="rgb(16,29,46)" d="M 1368.42 1093 C 1437.07 1085.73 1498.59 1135.54 1505.78 1204.19 C 1512.97 1272.84 1463.1 1334.31 1394.44 1341.42 C 1325.88 1348.52 1264.54 1298.75 1257.36 1230.21 C 1250.18 1161.66 1299.89 1100.26 1368.42 1093 z"/><path transform="translate(0,0)" fill="rgb(16,29,46)" d="M 673.177 1092.95 C 741.558 1089.5 799.906 1141.88 803.825 1210.24 C 807.743 1278.59 755.762 1337.3 687.435 1341.69 C 618.441 1346.12 559.037 1293.52 555.08 1224.5 C 551.124 1155.47 604.129 1096.43 673.177 1092.95 z"/></svg>