<svg version="1.1" xmlns="http://www.w3.org/2000/svg" viewBox="0 0 2048 2048"><path transform="translate(0,0)" fill="rgb(217,164,32)" d="M 842.984 1115.29 C 824.289 1105.04 811.644 1095.59 796.954 1079.81 C 777.454 1058.59 763.706 1032.74 757.018 1004.71 C 752.383 984.628 753.246 956.662 753.265 935.635 L 753.363 866.765 C 753.447 816.068 752.971 764.914 753.527 714.235 C 754.019 669.538 773.518 625.87 806.616 595.306 C 827.774 575.856 853.599 562.204 881.587 555.674 C 911.173 548.848 976.583 551.826 1009.79 551.644 C 1049.19 551.428 1096.41 550.277 1135.37 551.679 C 1178.84 552.669 1220.18 570.756 1250.41 602.017 C 1270.82 623.096 1285.29 649.21 1292.33 677.698 C 1298.69 703.652 1297.45 726.911 1297.45 753.336 L 1297.38 818.493 C 1297.3 867.656 1298.29 920.537 1297.16 969.415 C 1296.29 1014.87 1277 1058.02 1243.71 1088.98 C 1231.39 1100.61 1221.42 1107.03 1206.85 1115.27 L 1207.03 1509.35 L 1206.93 1622.6 C 1206.92 1636.74 1207.58 1670.09 1205.64 1682.61 C 1202.84 1699.54 1194.81 1715.16 1182.66 1727.28 C 1167 1742.99 1145.74 1751.83 1123.57 1751.85 C 1101.43 1751.85 1080.23 1742.95 1064.72 1727.16 C 1043.68 1705.63 1042.39 1684.05 1042.53 1655.97 L 1042.24 1162.88 C 1029.94 1163 1017.36 1162.81 1005.03 1162.75 L 1005.23 1552.83 L 1005.2 1631.45 C 1005.26 1645.61 1006.44 1677 1003.4 1689.47 C 999.934 1703.96 992.592 1717.24 982.161 1727.88 C 966.601 1743.63 945.901 1751.79 923.842 1751.8 C 902.257 1751.7 881.614 1742.95 866.529 1727.51 C 849.07 1709.67 842.531 1689.3 843.017 1664.71 L 843.062 1663.05 C 843.734 1643.69 843.09 1620.3 843.064 1600.68 L 842.918 1477.65 L 842.984 1115.29 z"/><path transform="translate(0,0)" fill="rgb(209,143,0)" d="M 1135.37 551.679 C 1178.84 552.669 1220.18 570.756 1250.41 602.017 C 1270.82 623.096 1285.29 649.21 1292.33 677.698 C 1298.69 703.652 1297.45 726.911 1297.45 753.336 L 1297.38 818.493 C 1297.3 867.656 1298.29 920.537 1297.16 969.415 C 1296.29 1014.87 1277 1058.02 1243.71 1088.98 C 1231.39 1100.61 1221.42 1107.03 1206.85 1115.27 L 1207.03 1509.35 L 1206.93 1622.6 C 1206.92 1636.74 1207.58 1670.09 1205.64 1682.61 C 1202.84 1699.54 1194.81 1715.16 1182.66 1727.28 C 1167 1742.99 1145.74 1751.83 1123.57 1751.85 C 1101.43 1751.85 1080.23 1742.95 1064.72 1727.16 C 1043.68 1705.63 1042.39 1684.05 1042.53 1655.97 C 1048.89 1651.97 1055.71 1648 1062.14 1644.22 C 1111.8 1614.98 1144.73 1565.23 1148.34 1507.31 C 1149.27 1492.33 1149.41 1476.92 1149.7 1461.79 L 1151.07 1373.11 C 1152.94 1271.51 1154.16 1169.89 1154.73 1068.27 C 1185.44 1041.17 1209.35 997.628 1214.19 956.911 C 1216.29 939.273 1215.85 921.356 1215.81 903.609 L 1215.9 839.577 L 1216.07 752.486 C 1216.08 737.048 1216.64 716.16 1215.34 701.261 C 1214.03 687.34 1210.98 673.639 1206.25 660.48 C 1190.61 617.111 1157.7 586.31 1117.14 565.802 C 1106.06 560.198 1095.37 557.136 1084.45 552.066 C 1100.99 551.413 1118.58 552.006 1135.37 551.679 z"/><path transform="translate(0,0)" fill="rgb(209,143,0)" d="M 1005.23 1552.83 L 1005.2 1631.45 C 1005.26 1645.61 1006.44 1677 1003.4 1689.47 C 999.934 1703.96 992.592 1717.24 982.161 1727.88 C 966.601 1743.63 945.901 1751.79 923.842 1751.8 C 902.257 1751.7 881.614 1742.95 866.529 1727.51 C 849.07 1709.67 842.531 1689.3 843.017 1664.71 L 843.062 1663.05 C 848.874 1661.12 855.888 1659.55 861.836 1658.08 C 911.153 1645.93 956.307 1618.75 988.012 1578.8 C 994.105 1571.12 999.585 1561.17 1005.23 1552.83 z"/><path transform="translate(0,0)" fill="rgb(217,164,32)" d="M 1404.72 1240.16 C 1390.13 1231.37 1377.26 1222.15 1365.43 1209.79 C 1349.77 1193.37 1338.81 1173.04 1333.7 1150.93 C 1329.01 1129.91 1330.95 1076.56 1330.79 1052.28 C 1330.47 1004.3 1330.86 954.891 1331.02 906.838 C 1331.15 869.468 1345.51 835.72 1372.87 810.046 C 1420.97 764.903 1466.43 769.353 1527.02 769.77 C 1556.2 769.97 1586.43 769.082 1615.74 769.832 C 1646.19 769.57 1675.11 767.463 1703.99 778.938 C 1762.23 802.073 1794.1 849.002 1794.46 910.734 L 1794.23 1037.03 C 1794.3 1064.36 1796.45 1126.69 1790.46 1150.79 C 1784.63 1173.57 1772.8 1194.37 1756.2 1211.02 C 1743.62 1223.72 1732.25 1230.93 1716.94 1239.82 L 1716.83 1556.35 L 1716.76 1640.88 C 1716.76 1674.17 1721.85 1706.43 1696.02 1731.76 C 1682.57 1744.81 1664.5 1752 1645.76 1751.77 C 1628.12 1751.42 1610.03 1743.28 1598.01 1730.43 C 1577.72 1708.72 1578.71 1688.3 1578.94 1660.89 L 1578.72 1293.3 L 1542.73 1293.17 L 1542.65 1565.42 L 1542.88 1643.7 C 1542.88 1656.39 1544.08 1689.1 1540.35 1700.42 C 1513.31 1782.38 1402.96 1761.41 1404.75 1672.73 L 1404.78 1671.54 L 1404.72 1240.16 z"/><path transform="translate(0,0)" fill="rgb(209,143,0)" d="M 1615.74 769.832 C 1646.19 769.57 1675.11 767.463 1703.99 778.938 C 1762.23 802.073 1794.1 849.002 1794.46 910.734 L 1794.23 1037.03 C 1794.3 1064.36 1796.45 1126.69 1790.46 1150.79 C 1784.63 1173.57 1772.8 1194.37 1756.2 1211.02 C 1743.62 1223.72 1732.25 1230.93 1716.94 1239.82 L 1716.83 1556.35 L 1716.76 1640.88 C 1716.76 1674.17 1721.85 1706.43 1696.02 1731.76 C 1682.57 1744.81 1664.5 1752 1645.76 1751.77 C 1628.12 1751.42 1610.03 1743.28 1598.01 1730.43 C 1577.72 1708.72 1578.71 1688.3 1578.94 1660.89 C 1597.08 1647.9 1608 1640.73 1624.29 1624.11 C 1644.94 1603.04 1660.81 1575.76 1668.35 1547.17 C 1670.52 1538.95 1669.91 1515.09 1669.89 1505.57 L 1669.79 1442.99 L 1669.66 1206.12 C 1675.4 1199.35 1680.63 1192.18 1685.31 1184.65 C 1701.46 1159.01 1716.2 1122.66 1716.68 1091.83 C 1717.58 1033.94 1716.79 975.891 1716.98 917.985 C 1717.04 902.853 1717.21 887.464 1713.72 872.687 C 1704.57 832.05 1673.26 802.101 1638.53 781.604 C 1631.43 777.396 1623.41 774.659 1617.27 770.808 L 1615.74 769.832 z"/><path transform="translate(0,0)" fill="rgb(209,143,0)" d="M 1404.78 1671.54 C 1473.36 1651.48 1518 1618.76 1541.9 1549.83 L 1542.65 1565.42 L 1542.88 1643.7 C 1542.88 1656.39 1544.08 1689.1 1540.35 1700.42 C 1513.31 1782.38 1402.96 1761.41 1404.75 1672.73 L 1404.78 1671.54 z"/><path transform="translate(0,0)" fill="rgb(217,164,32)" d="M 330.436 1240.33 C 294.633 1217.87 268.288 1193.11 258.577 1150.07 C 254.696 1132.87 255.699 1113.84 255.646 1096.19 L 255.632 1031.52 C 255.577 987.039 254.955 941.795 255.708 897.343 C 256.28 863.574 275.239 829.113 300.281 806.61 C 317.746 791.006 338.745 779.884 361.466 774.202 C 388.313 767.555 427.678 770.005 456.717 769.613 C 482.735 769.262 518.206 768.286 543.804 769.643 C 579.934 769.607 610.84 768.13 643.873 786.389 C 696.679 815.578 718.932 857.955 718.987 917.004 L 718.835 1052.76 C 718.882 1076.13 720.662 1127.98 715.601 1148.82 C 709.908 1172.55 697.798 1194.26 680.597 1211.57 C 668.277 1223.93 655.036 1232.6 639.277 1239.9 L 639.376 1552.78 L 639.455 1645.48 C 639.42 1657.86 639.959 1681.72 638.239 1693.34 C 636.249 1707.73 629.663 1721.09 619.462 1731.43 C 606.774 1744.35 589.433 1751.65 571.321 1751.68 C 554.178 1751.58 536.098 1743.54 524.35 1731.11 C 512.567 1718.47 506.217 1701.71 506.666 1684.43 C 506.685 1684.11 506.703 1683.8 506.722 1683.48 C 505.03 1644.03 506.781 1595.41 506.792 1554.88 L 506.558 1293.29 C 494.415 1293.38 482.271 1293.28 470.131 1293 C 469.885 1377.97 471.06 1464.22 469.891 1549.02 L 470.189 1639.09 C 470.191 1654.8 471.155 1686.61 467.818 1700.09 C 464.792 1711.99 458.654 1722.88 450.033 1731.62 C 436.72 1744.81 418.648 1752.06 399.912 1751.74 C 380.931 1751.43 362.855 1743.57 349.68 1729.9 C 334.401 1714.03 329.866 1697.3 330.45 1675.79 C 330.495 1674.2 330.556 1672.61 330.633 1671.02 L 330.436 1240.33 z"/><path transform="translate(0,0)" fill="rgb(209,143,0)" d="M 543.804 769.643 C 579.934 769.607 610.84 768.13 643.873 786.389 C 696.679 815.578 718.932 857.955 718.987 917.004 L 718.835 1052.76 C 718.882 1076.13 720.662 1127.98 715.601 1148.82 C 709.908 1172.55 697.798 1194.26 680.597 1211.57 C 668.277 1223.93 655.036 1232.6 639.277 1239.9 L 639.376 1552.78 L 639.455 1645.48 C 639.42 1657.86 639.959 1681.72 638.239 1693.34 C 636.249 1707.73 629.663 1721.09 619.462 1731.43 C 606.774 1744.35 589.433 1751.65 571.321 1751.68 C 554.178 1751.58 536.098 1743.54 524.35 1731.11 C 512.567 1718.47 506.217 1701.71 506.666 1684.43 C 506.685 1684.11 506.703 1683.8 506.722 1683.48 C 507.314 1676.79 506.993 1666.26 506.989 1659.29 C 544.008 1636.82 580.156 1597.28 592.488 1554.97 C 596.947 1539.67 595.778 1513.61 595.811 1497.08 L 595.831 1432.21 L 595.832 1206.11 C 600.077 1201.23 603.398 1197.11 607.153 1191.81 C 621.79 1171.15 632.053 1147.72 637.311 1122.95 C 642.674 1096.5 640.672 1029.25 640.728 998.477 L 640.847 934.142 C 640.873 913.313 641.499 897.583 638.237 876.873 C 631.895 836.623 601.582 805.02 568.1 784.339 C 560.557 779.68 547.796 774.38 542.747 770.879 L 543.804 769.643 z"/><path transform="translate(0,0)" fill="rgb(209,143,0)" d="M 469.891 1549.02 L 470.189 1639.09 C 470.191 1654.8 471.155 1686.61 467.818 1700.09 C 464.792 1711.99 458.654 1722.88 450.033 1731.62 C 436.72 1744.81 418.648 1752.06 399.912 1751.74 C 380.931 1751.43 362.855 1743.57 349.68 1729.9 C 334.401 1714.03 329.866 1697.3 330.45 1675.79 C 330.495 1674.2 330.556 1672.61 330.633 1671.02 C 335.106 1669.69 339.569 1668.33 344.02 1666.92 C 393.038 1651.3 432.541 1624.58 457.544 1578.66 C 462.687 1569.21 464.983 1557.99 469.891 1549.02 z"/><path transform="translate(0,0)" fill="rgb(217,164,32)" d="M 990.091 521.43 C 962.802 515.463 934.353 495.221 918.192 473.037 C 897.392 444.484 891.394 415.711 892.625 381.079 C 893.047 369.196 892.44 361.764 894.311 349.406 C 899.57 315.233 918.08 284.508 945.832 263.886 C 968.662 247.122 1004.72 234.329 1033.03 238.651 C 1068.31 240.408 1101.4 256.252 1124.89 282.629 C 1156.9 318.742 1159.96 358.816 1157.06 404.816 C 1154.94 438.497 1138.41 470.85 1113.03 492.937 C 1086.32 516.281 1051.4 528.022 1016.01 525.566 C 1006.74 524.903 999.127 523.418 990.091 521.43 z"/><path transform="translate(0,0)" fill="rgb(209,143,0)" d="M 1033.03 238.651 C 1068.31 240.408 1101.4 256.252 1124.89 282.629 C 1156.9 318.742 1159.96 358.816 1157.06 404.816 C 1154.94 438.497 1138.41 470.85 1113.03 492.937 C 1086.32 516.281 1051.4 528.022 1016.01 525.566 C 1006.74 524.903 999.127 523.418 990.091 521.43 C 990.67 520.631 1018.94 507.308 1023.67 504.404 C 1053.24 486.241 1077.76 461.416 1087.91 426.745 C 1109.96 351.372 1100.06 287.026 1032.85 239.988 L 1033.03 238.651 z"/><path transform="translate(0,0)" fill="rgb(217,164,32)" d="M 1533.95 743.501 C 1510.94 737.505 1490.22 724.855 1474.37 707.135 C 1446.93 675.921 1445.48 642.577 1447.47 603.042 C 1450.45 543.746 1504.53 491.437 1564.78 495.806 C 1595.52 496.819 1624.96 509.124 1645.7 531.943 C 1674.66 563.806 1677.68 596.555 1676.08 637.02 C 1675.16 667.285 1662.08 695.901 1639.8 716.403 C 1616.86 737.402 1586.48 748.363 1555.42 746.848 C 1548.17 746.445 1540.97 745.324 1533.95 743.501 z"/><path transform="translate(0,0)" fill="rgb(209,143,0)" d="M 1564.78 495.806 C 1595.52 496.819 1624.96 509.124 1645.7 531.943 C 1674.66 563.806 1677.68 596.555 1676.08 637.02 C 1675.16 667.285 1662.08 695.901 1639.8 716.403 C 1616.86 737.402 1586.48 748.363 1555.42 746.848 C 1548.17 746.445 1540.97 745.324 1533.95 743.501 C 1535.62 741.748 1549.07 736.037 1552.64 734.234 C 1569.47 725.618 1584.17 713.35 1595.66 698.325 C 1617.63 669.886 1626.65 622.579 1622.62 587.298 C 1619.74 562.126 1606.36 532.481 1588.17 514.71 C 1580.64 507.358 1573.08 502.167 1564.78 495.806 z"/><path transform="translate(0,0)" fill="rgb(217,164,32)" d="M 460.068 743.323 C 437.419 736.748 418.957 726.859 403.064 709.17 C 374.959 677.89 372.785 644.729 374.939 604.721 C 376.42 573.753 390.29 544.682 413.427 524.047 C 434.401 505.475 462.634 494.127 490.829 495.811 C 523.215 497.182 551.501 508.936 573.578 533.2 C 600.751 563.065 605.146 597.673 603.21 636.313 C 601.877 667.33 588.168 696.519 565.149 717.352 C 542.038 737.796 511.803 748.312 480.993 746.621 C 473.933 746.154 466.929 745.051 460.068 743.323 z"/><path transform="translate(0,0)" fill="rgb(209,143,0)" d="M 490.829 495.811 C 523.215 497.182 551.501 508.936 573.578 533.2 C 600.751 563.065 605.146 597.673 603.21 636.313 C 601.877 667.33 588.168 696.519 565.149 717.352 C 542.038 737.796 511.803 748.312 480.993 746.621 C 473.933 746.154 466.929 745.051 460.068 743.323 C 462.204 741.334 473.729 735.927 476.707 734.515 C 522.102 712.533 544.129 671.801 548.744 622.999 C 554.201 565.3 536.335 529.315 490.829 495.811 z"/></svg>